<!DOCTYPE svg PUBLIC "-//W3C//DTD SVG 1.1//EN" "http://www.w3.org/Graphics/SVG/1.1/DTD/svg11.dtd">
<!-- Uploaded to: SVG Repo, www.svgrepo.com, Transformed by: SVG Repo Mixer Tools -->
<svg fill="#ffffff" height="800px" width="800px" version="1.1" id="Layer_1" xmlns="http://www.w3.org/2000/svg" xmlns:xlink="http://www.w3.org/1999/xlink" viewBox="0 0 512 512" xml:space="preserve" stroke="#ffffff">
<g id="SVGRepo_bgCarrier" stroke-width="0"/>
<g id="SVGRepo_tracerCarrier" stroke-linecap="round" stroke-linejoin="round"/>
<g id="SVGRepo_iconCarrier"> <g> <g> <path d="M503.551,472.969H8.449c-4.666,0-8.449,3.783-8.449,8.449c0,4.666,3.783,8.449,8.449,8.449h495.102 c4.667,0,8.449-3.783,8.449-8.449C512,476.752,508.217,472.969,503.551,472.969z"/> </g> </g> <g> <g> <path d="M85.624,328.559c-4.666,0-8.449,3.783-8.449,8.449v15.772c0,4.666,3.783,8.449,8.449,8.449 c4.666,0,8.449-3.783,8.449-8.449v-15.772C94.073,332.341,90.29,328.559,85.624,328.559z"/> </g> </g> <g> <g> <path d="M154.907,228.294c-4.666,0-8.449,3.783-8.449,8.449v15.772c0,4.666,3.783,8.449,8.449,8.449 c4.666,0,8.449-3.783,8.449-8.449v-15.772C163.357,232.077,159.574,228.294,154.907,228.294z"/> </g> </g> <g> <g> <path d="M154.907,278.99c-4.666,0-8.449,3.783-8.449,8.449v15.772c0,4.666,3.783,8.449,8.449,8.449 c4.666,0,8.449-3.783,8.449-8.449v-15.772C163.357,282.773,159.574,278.99,154.907,278.99z"/> </g> </g> <g> <g> <path d="M224.191,328.559c-4.666,0-8.449,3.783-8.449,8.449v15.772c0,4.666,3.783,8.449,8.449,8.449 c4.666,0,8.449-3.783,8.449-8.449v-15.772C232.641,332.341,228.858,328.559,224.191,328.559z"/> </g> </g> <g> <g> <path d="M340.791,165.207c-13.976,0-25.348,11.37-25.348,25.348c0,13.977,11.372,25.348,25.348,25.348s25.348-11.37,25.348-25.348 C366.139,176.577,354.767,165.207,340.791,165.207z M340.791,199.004c-4.659,0-8.449-3.79-8.449-8.449s3.79-8.449,8.449-8.449 c4.659,0,8.449,3.79,8.449,8.449S345.451,199.004,340.791,199.004z"/> </g> </g> <g> <g> <path d="M503.551,304.901c4.666,0,8.449-3.783,8.449-8.449v-18.025c0-4.666-3.782-8.449-8.449-8.449s-8.449,3.783-8.449,8.449 v9.576h-6.047v-9.576c0-4.666-3.782-8.449-8.449-8.449c-4.667,0-8.449,3.783-8.449,8.449v9.576h-6.047v-9.576 c0-4.666-3.782-8.449-8.449-8.449c-4.667,0-8.449,3.783-8.449,8.449v9.576h-6.047v-9.576c0-4.666-3.782-8.449-8.449-8.449 c-4.667,0-8.449,3.783-8.449,8.449v9.576h-6.049v-9.576c0-4.666-3.782-8.449-8.449-8.449s-8.449,3.783-8.449,8.449v9.576h-6.385 v-60.156c0-4.666-3.782-8.449-8.449-8.449h-3.19v-67.168c0-4.666-3.782-8.449-8.449-8.449h-0.563v-34.338 c0-4.666-3.782-8.449-8.449-8.449h-1.008l-18.233-46.241V33.825c0-4.666-3.782-8.449-8.449-8.449s-8.449,3.783-8.449,8.449V54.75 l-18.234,46.241h-1.008c-4.667,0-8.449,3.783-8.449,8.449v34.338h-0.563c-4.667,0-8.449,3.783-8.449,8.449v67.168h-3.199 c-4.667,0-8.449,3.783-8.449,8.449v166.702h-12.392V312.91c4.432-6.199,6.759-13.193,6.759-20.401 c0-29.118-16.869-40.135-30.422-48.987c-5.393-3.522-10.523-6.882-14.64-11.136v-14.794c0-4.666-3.783-8.449-8.449-8.449 s-8.449,3.783-8.449,8.449v14.794c-2.65,2.738-5.723,5.104-9.013,7.381v-33.441c0-4.666-3.783-8.449-8.449-8.449h-0.086 l-5.65-41.142c-0.575-4.183-4.148-7.3-8.37-7.3h-2.436l-13.274-58.022c7.079-4.501,11.79-12.409,11.79-21.401 c0-11.016-7.065-20.407-16.898-23.895V30.582c0-4.666-3.783-8.449-8.449-8.449s-8.449,3.783-8.449,8.449v15.535 c-9.834,3.488-16.898,12.879-16.898,23.895c0,1.182,0.088,2.343,0.246,3.482c-9.735-5.611-20.908-8.721-32.477-8.721 c-35.873,0-65.059,29.186-65.059,65.059c0,35.868,29.186,65.048,65.059,65.048c5.098,0,10.087-0.587,14.939-1.726l-0.649,4.723 h-0.084c-4.666,0-8.449,3.783-8.449,8.449v33.441c-3.29-2.277-6.363-4.644-9.013-7.381v-14.794c0-4.666-3.783-8.449-8.449-8.449 s-8.449,3.783-8.449,8.449v14.794c-4.118,4.254-9.247,7.613-14.64,11.136c-13.555,8.851-30.423,19.868-30.423,48.987 c0,7.208,2.328,14.201,6.759,20.401v127.954H8.449c-4.666,0-8.449,3.783-8.449,8.449c0,4.666,3.783,8.449,8.449,8.449h495.102 c4.667,0,8.449-3.783,8.449-8.449c0-4.666-3.782-8.449-8.449-8.449h-95.355v-37.868c0-4.666-3.782-8.449-8.449-8.449h-2.816 v-89.645H503.551z M340.138,79.39l8.518,21.601h-17.035L340.138,79.39z M320.896,117.891h38.484v25.889h-10.792v-5.07 c0-4.666-3.782-8.449-8.449-8.449s-8.449,3.783-8.449,8.449v5.07h-10.793V117.891z M311.883,160.677h56.509v58.719h-56.509 V160.677z M300.235,236.294h79.797v26.923h-7.133v-5.07c0-4.666-3.782-8.449-8.449-8.449c-4.667,0-8.449,3.783-8.449,8.449v5.07 h-7.886v-5.07c0-4.666-3.782-8.449-8.449-8.449c-4.667,0-8.449,3.783-8.449,8.449v5.07h-7.886v-5.07 c0-4.666-3.782-8.449-8.449-8.449c-4.667,0-8.449,3.783-8.449,8.449v5.07h-6.196V236.294z M300.235,280.116h79.797v81.113h-79.797 V280.116z M300.235,378.128h79.797v16.419h-79.797V378.128z M260.805,292.509c0,2.672-0.679,5.339-1.978,7.886h-10.925 c0.264-2.586,0.4-5.227,0.4-7.886c0-13.918-1.419-23.228-3.491-30.298C254.394,269.003,260.805,276.146,260.805,292.509z M224.193,256.532c3.969,7.59,7.21,15.32,7.21,35.977c0,2.695-0.172,5.347-0.508,7.886h-13.405 c-0.336-2.539-0.508-5.191-0.508-7.886C216.981,271.851,220.222,264.123,224.193,256.532z M181.14,197.877h-52.463l1.006-7.323 h50.451L181.14,197.877z M176.807,166.333l1.006,7.323h-45.811l1.006-7.323H176.807z M154.907,61.562 c4.659,0,8.449,3.79,8.449,8.449s-3.79,8.449-8.449,8.449s-8.449-3.79-8.449-8.449S150.249,61.562,154.907,61.562z M154.907,107.921l9.497,41.514h-18.994L154.907,107.921z M97.329,177.982c-26.555,0-48.161-21.6-48.161-48.15 c0-26.555,21.605-48.161,48.161-48.161c16.692,0,32.259,8.761,41.003,22.931l-10.256,44.831h-2.436c-4.222,0-7.796,3.117-8.37,7.3 l-2.467,17.972C109.257,176.871,103.399,177.982,97.329,177.982z M85.624,247.653c4.431,3.865,9.193,6.975,13.849,10.016 c3.742,2.443,7.189,4.695,10.209,7.121c-16.031-2.646-26.306-7.349-32.2-10.918C80.251,251.969,82.996,249.946,85.624,247.653z M49.01,292.509c0-0.974,0.029-1.907,0.074-2.819c4.81,3.096,11.239,6.892,18.988,10.705H50.99 C49.691,297.847,49.01,295.181,49.01,292.509z M115.478,440.864H55.77V317.293h59.708V440.864z M120.529,299.827 c-31.485-4.977-56.716-20.453-66.433-27.133c2.214-3.338,5.071-6.067,8.404-8.636c2.642,2.1,6.628,4.835,12.207,7.584 c12.79,6.302,28.476,10.169,46.671,11.53c0.558,2.749,0.858,5.827,0.858,9.336C122.238,294.981,121.647,297.451,120.529,299.827z M177.439,440.864h-45.063v-87.521h45.063V440.864z M177.439,312.91v23.535h-45.063V312.91c4.432-6.201,6.759-13.193,6.759-20.401 c0-21.281-9.01-32.888-19.152-41.052v-36.681h69.847v36.681c-10.141,8.164-19.152,19.772-19.152,41.052 C170.679,299.716,173.007,306.71,177.439,312.91z M187.578,292.509c0-16.362,6.411-23.505,15.995-30.298 c-2.072,7.07-3.491,16.381-3.491,30.298c0.001,2.659,0.136,5.301,0.4,7.886h-10.924 C188.258,297.847,187.578,295.181,187.578,292.509z M207.756,402.996v37.868h-13.417V317.293h59.708v77.253h-37.841 C211.539,394.546,207.756,398.329,207.756,402.996z M328.962,440.864H224.654v-0.001v-29.418h104.308V440.864z M391.297,440.864 h-45.437v-0.001v-29.418h45.437V440.864z"/> </g> </g> <g> <g> <path d="M434.543,329.685h-9.506c-4.667,0-8.449,3.783-8.449,8.449s3.782,8.449,8.449,8.449h9.506 c4.666,0,8.449-3.783,8.449-8.449S439.21,329.685,434.543,329.685z"/> </g> </g> <g> <g> <path d="M473.726,352.217h-9.506c-4.667,0-8.449,3.783-8.449,8.449c0,4.666,3.782,8.449,8.449,8.449h9.506 c4.667,0,8.449-3.783,8.449-8.449C482.175,356,478.392,352.217,473.726,352.217z"/> </g> </g> <g> <g> <path d="M442.676,391.647h-9.506c-4.667,0-8.449,3.783-8.449,8.449c0,4.666,3.782,8.449,8.449,8.449h9.506 c4.667,0,8.449-3.783,8.449-8.449C451.125,395.43,447.343,391.647,442.676,391.647z"/> </g> </g> </g>
</svg>