<svg width="32" height="48" viewBox="0 0 32 48" fill="none" xmlns="http://www.w3.org/2000/svg">
<circle cx="16" cy="16" r="16" fill="#0E0E0E"/>
<path d="M16 48L2.14359 24L29.8564 24L16 48Z" fill="#0E0E0E"/>
<path d="M24 9H20.83L19 7H13L11.17 9H8C6.9 9 6 9.9 6 11V23C6 24.1 6.9 25 8 25H24C25.1 25 26 24.1 26 23V11C26 9.9 25.1 9 24 9ZM24 23H8V11H12.05L13.88 9H18.12L19.95 11H24V23ZM16 12C13.24 12 11 14.24 11 17C11 19.76 13.24 22 16 22C18.76 22 21 19.76 21 17C21 14.24 18.76 12 16 12ZM16 20C14.35 20 13 18.65 13 17C13 15.35 14.35 14 16 14C17.65 14 19 15.35 19 17C19 18.65 17.65 20 16 20Z" fill="white"/>
</svg>
