<svg width="30" height="45" viewBox="0 0 30 45" fill="none" xmlns="http://www.w3.org/2000/svg">
<circle cx="15" cy="15" r="15" fill="#0E0E0E"/>
<path d="M15 45L2.00962 22.5L27.9904 22.5L15 45Z" fill="#0E0E0E"/>
<path d="M24.5 9.5V17H22.5V10.5L17.5 7L12.5 10.5V12H10.5V9.5L17.5 4.5L24.5 9.5ZM19 10H18V11H19V10ZM17 10H16V11H17V10ZM19 12H18V13H19V12ZM17 12H16V13H17V12ZM22.5 19H20.5C20.5 17.8 19.75 16.72 18.63 16.3L12.47 14H4.5V25H10.5V23.56L17.5 25.5L25.5 23V22C25.5 20.34 24.16 19 22.5 19ZM6.5 23V16H8.5V23H6.5ZM17.47 23.41L10.5 21.48V16H12.11L17.93 18.17C18.27 18.3 18.5 18.63 18.5 19C18.5 19 16.51 18.95 16.2 18.85L13.82 18.06L13.19 19.96L15.57 20.75C16.08 20.92 16.61 21.01 17.15 21.01H22.5C22.89 21.01 23.24 21.24 23.4 21.57L17.47 23.41Z" fill="white"/>
</svg>
