<svg width="32" height="48" viewBox="0 0 32 48" fill="none" xmlns="http://www.w3.org/2000/svg">
<circle cx="16" cy="16" r="16" fill="#3FC43C"/>
<path d="M16 48L2.14359 24L29.8564 24L16 48Z" fill="#3FC43C"/>
<path d="M24.57 18.86L26 17.43L24.57 16L21 19.57L12.43 11L16 7.43L14.57 6L13.14 7.43L11.71 6L9.57 8.14L8.14 6.71L6.71 8.14L8.14 9.57L6 11.71L7.43 13.14L6 14.57L7.43 16L11 12.43L19.57 21L16 24.57L17.43 26L18.86 24.57L20.29 26L22.43 23.86L23.86 25.29L25.29 23.86L23.86 22.43L26 20.29L24.57 18.86Z" fill="white"/>
</svg>
