<svg width="30" height="45" viewBox="0 0 30 45" fill="none" xmlns="http://www.w3.org/2000/svg">
<circle cx="15" cy="15" r="15" fill="#0E0E0E"/>
<path d="M15 45L2.00962 22.5L27.9904 22.5L15 45Z" fill="#0E0E0E"/>
<path d="M23.57 17.86L25 16.43L23.57 15L20 18.57L11.43 10L15 6.43L13.57 5L12.14 6.43L10.71 5L8.57 7.14L7.14 5.71L5.71 7.14L7.14 8.57L5 10.71L6.43 12.14L5 13.57L6.43 15L10 11.43L18.57 20L15 23.57L16.43 25L17.86 23.57L19.29 25L21.43 22.86L22.86 24.29L24.29 22.86L22.86 21.43L25 19.29L23.57 17.86Z" fill="white"/>
</svg>
