<svg width="32" height="48" viewBox="0 0 32 48" fill="none" xmlns="http://www.w3.org/2000/svg">
<circle cx="16" cy="16" r="16" fill="#0E0E0E"/>
<path d="M16 48L2.14359 24L29.8564 24L16 48Z" fill="#0E0E0E"/>
<path d="M14.7096 6H6.70958V8H14.7096V6Z" fill="white"/>
<path d="M9.70958 15H11.7096V11H14.7096V9H6.70958V11H9.70958V15Z" fill="white"/>
<path d="M23.8913 16.4038L16.1132 24.1819L17.5274 25.5961L25.3055 17.818L23.8913 16.4038Z" fill="white"/>
<path d="M18.2096 20C19.038 20 19.7096 19.3284 19.7096 18.5C19.7096 17.6716 19.038 17 18.2096 17C17.3812 17 16.7096 17.6716 16.7096 18.5C16.7096 19.3284 17.3812 20 18.2096 20Z" fill="white"/>
<path d="M23.2096 25C24.038 25 24.7096 24.3284 24.7096 23.5C24.7096 22.6716 24.038 22 23.2096 22C22.3812 22 21.7096 22.6716 21.7096 23.5C21.7096 24.3284 22.3812 25 23.2096 25Z" fill="white"/>
<path d="M19.2096 15C20.5896 15 21.7096 13.88 21.7096 12.5V8H24.7096V6H20.7096V10.51C20.2896 10.19 19.7796 10 19.2096 10C17.8296 10 16.7096 11.12 16.7096 12.5C16.7096 13.88 17.8296 15 19.2096 15Z" fill="white"/>
<path d="M13.4496 19.96L12.0396 21.37L11.3296 20.66L11.6796 20.31C12.6596 19.33 12.6596 17.75 11.6796 16.77C11.1896 16.28 10.5496 16.04 9.90958 16.04C9.26958 16.04 8.62958 16.28 8.13958 16.77C7.15958 17.75 7.15958 19.33 8.13958 20.31L8.48958 20.66L7.42958 21.72C6.44958 22.7 6.44958 24.28 7.42958 25.26C7.92958 25.76 8.56958 26 9.20958 26C9.84958 26 10.4896 25.76 10.9796 25.27L12.0396 24.21L13.4496 25.62L14.8596 24.21L13.4496 22.8L14.8596 21.39L13.4496 19.96ZM9.55958 18.2C9.67958 18.08 9.81958 18.05 9.90958 18.05C9.99958 18.05 10.1396 18.08 10.2596 18.2C10.4496 18.4 10.4496 18.71 10.2596 18.91L9.90958 19.26L9.55958 18.9C9.36958 18.71 9.36958 18.39 9.55958 18.2ZM9.55958 23.85C9.43958 23.97 9.29958 24 9.20958 24C9.11958 24 8.97958 23.97 8.85958 23.85C8.66958 23.66 8.66958 23.34 8.85958 23.14L9.91958 22.08L10.6296 22.79L9.55958 23.85Z" fill="white"/>
</svg>
