<svg width="30" height="45" viewBox="0 0 30 45" fill="none" xmlns="http://www.w3.org/2000/svg">
<circle cx="15" cy="15" r="15" fill="#0E0E0E"/>
<path d="M15 45L2.00962 22.5L27.9904 22.5L15 45Z" fill="#0E0E0E"/>
<path d="M12.78 7V8.38C11.95 8.05 11.06 7.88 10.17 7.88C8.37997 7.88 6.58997 8.56 5.21997 9.93L8.54997 13.26H9.65997V14.37C10.52 15.23 11.64 15.68 12.77 15.73V18H9.77997V21C9.77997 22.1 10.68 23 11.78 23H21.78C23.44 23 24.78 21.66 24.78 20V7H12.78ZM11.67 13.41V11.26H9.38997L8.34997 10.22C8.91997 10 9.53997 9.88 10.17 9.88C11.51 9.88 12.76 10.4 13.71 11.34L15.12 12.75L14.92 12.95C14.41 13.46 13.73 13.75 13 13.75C12.53 13.75 12.07 13.63 11.67 13.41ZM22.78 20C22.78 20.55 22.33 21 21.78 21C21.23 21 20.78 20.55 20.78 20V18H14.78V15.41C15.35 15.18 15.88 14.84 16.34 14.38L16.54 14.18L19.37 17H20.78V15.59L14.78 9.62V9H22.78V20Z" fill="white"/>
</svg>
