<svg width="32" height="48" viewBox="0 0 32 48" fill="none" xmlns="http://www.w3.org/2000/svg">
<circle cx="16" cy="16" r="16" fill="#0E0E0E"/>
<path d="M16 48L2.14359 24L29.8564 24L16 48Z" fill="#0E0E0E"/>
<path d="M19.75 8C19.75 6.89 20.64 6 21.75 6C22.86 6 23.75 6.89 23.75 8C23.75 9.11 22.86 10 21.75 10C20.64 10 19.75 9.11 19.75 8ZM23.75 26V20H26.25L23.71 12.37C23.43 11.55 22.67 11 21.81 11H21.69C20.83 11 20.06 11.55 19.79 12.37L18.93 14.95C20.01 15.55 20.75 16.68 20.75 18V26H23.75ZM16.25 15.5C17.08 15.5 17.75 14.83 17.75 14C17.75 13.17 17.08 12.5 16.25 12.5C15.42 12.5 14.75 13.17 14.75 14C14.75 14.83 15.42 15.5 16.25 15.5ZM9.25 10C10.36 10 11.25 9.11 11.25 8C11.25 6.89 10.36 6 9.25 6C8.14 6 7.25 6.89 7.25 8C7.25 9.11 8.14 10 9.25 10ZM11.25 26V19H12.75V13C12.75 11.9 11.85 11 10.75 11H7.75C6.65 11 5.75 11.9 5.75 13V19H7.25V26H11.25ZM17.75 26V22H18.75V18C18.75 17.18 18.07 16.5 17.25 16.5H15.25C14.43 16.5 13.75 17.18 13.75 18V22H14.75V26H17.75Z" fill="white"/>
</svg>
