<svg width="30" height="45" viewBox="0 0 30 45" fill="none" xmlns="http://www.w3.org/2000/svg">
<circle cx="15" cy="15" r="15" fill="#E01B1B"/>
<path d="M15 45L2.00962 22.5L27.9904 22.5L15 45Z" fill="#E01B1B"/>
<path d="M23 8H19.83L18 6H12L10.17 8H7C5.9 8 5 8.9 5 10V22C5 23.1 5.9 24 7 24H23C24.1 24 25 23.1 25 22V10C25 8.9 24.1 8 23 8ZM23 22H7V10H11.05L12.88 8H17.12L18.95 10H23V22ZM15 11C12.24 11 10 13.24 10 16C10 18.76 12.24 21 15 21C17.76 21 20 18.76 20 16C20 13.24 17.76 11 15 11ZM15 19C13.35 19 12 17.65 12 16C12 14.35 13.35 13 15 13C16.65 13 18 14.35 18 16C18 17.65 16.65 19 15 19Z" fill="white"/>
</svg>
